<?xml version="1.0" standalone="no"?>
<!DOCTYPE svg PUBLIC "-//W3C//DTD SVG 20010904//EN"
 "http://www.w3.org/TR/2001/REC-SVG-20010904/DTD/svg10.dtd">
<svg version="1.0" xmlns="http://www.w3.org/2000/svg"
 width="205.000000pt" height="205.000000pt" viewBox="0 0 205.000000 205.000000"
 preserveAspectRatio="xMidYMid meet">
<metadata>
Created by potrace 1.11, written by Peter Selinger 2001-2013
</metadata>
<g transform="translate(0.000000,205.000000) scale(0.100000,-0.100000)"
fill="#000000" stroke="none">
<path d="M1250 1469 c-30 -4 -71 -10 -90 -13 -19 -2 -67 -11 -105 -20 -39 -8
-84 -17 -99 -20 -59 -11 -236 -70 -339 -113 -110 -46 -138 -68 -50 -39 43 14
187 46 268 59 17 3 59 10 95 16 148 24 323 31 472 17 41 -4 80 -11 87 -16 9
-5 1 -7 -20 -5 -18 1 -47 -1 -63 -5 -17 -4 -90 -20 -163 -35 -113 -24 -132
-30 -137 -49 -3 -11 -2 -24 2 -28 5 -5 -11 -68 -35 -142 -43 -132 -44 -133
-86 -153 -39 -19 -129 -43 -162 -43 -12 0 -12 6 2 35 15 32 55 55 98 55 6 0
27 5 47 10 32 9 39 17 53 61 10 28 13 54 9 59 -5 4 -40 0 -79 -10 -44 -11 -71
-13 -74 -7 -7 18 29 35 100 47 54 9 73 17 85 35 17 26 36 86 29 93 -2 3 -82
-12 -177 -32 -95 -20 -176 -36 -180 -36 -5 0 -8 9 -8 20 0 11 -7 23 -16 27
-17 6 -148 -15 -176 -29 -19 -9 -24 -44 -8 -50 9 -3 -11 -73 -46 -168 -3 -9
-23 17 -55 73 -28 48 -59 91 -68 97 -15 8 -49 3 -133 -18 -5 -1 -15 -2 -23 -2
-8 0 -24 -9 -35 -20 -16 -16 -18 -24 -9 -38 9 -14 -3 -62 -61 -240 -40 -121
-70 -228 -66 -237 10 -26 34 -28 121 -10 73 15 84 20 88 41 2 13 -1 25 -7 27
-10 3 32 160 57 211 8 17 10 17 21 -5 35 -65 71 -128 96 -164 25 -38 29 -40
74 -38 26 2 55 7 64 12 11 6 35 64 66 158 26 81 56 175 67 208 11 33 22 66 25
74 2 8 7 11 10 8 3 -3 -20 -85 -51 -182 -48 -150 -55 -181 -46 -202 7 -16 17
-23 29 -19 14 4 228 48 301 62 13 3 32 9 42 14 10 6 30 10 45 10 15 0 55 6 87
12 47 10 62 18 71 37 7 17 8 25 0 28 -12 4 27 135 42 140 5 2 24 -30 43 -71
39 -86 51 -93 131 -70 30 9 75 18 100 20 l45 4 -40 -26 c-163 -104 -472 -214
-670 -240 -27 -3 -69 -9 -93 -14 -49 -9 -326 -7 -392 3 -79 12 88 -40 182 -57
132 -23 372 -15 531 18 351 73 654 215 834 392 125 122 152 224 85 317 -27 38
-29 45 -17 67 7 14 15 37 19 53 8 33 0 34 -94 11 -45 -10 -71 -12 -85 -5 -11
5 -54 18 -95 27 -83 19 -373 27 -470 13z m299 -140 c29 -10 32 -14 25 -43 -8
-42 -19 -51 -22 -19 -1 15 -12 37 -24 50 -25 26 -23 27 21 12z m-169 -128 c0
-15 -35 -39 -72 -49 -29 -8 -38 -7 -38 2 0 19 23 44 45 48 42 8 65 7 65 -1z
m127 -121 c-19 -55 -26 -65 -48 -68 -19 -2 -28 3 -37 23 -15 33 -16 31 17 45
16 6 41 25 57 41 15 16 29 28 30 26 2 -2 -7 -32 -19 -67z m233 56 c0 -26 -65
-136 -80 -136 -15 0 34 129 49 133 24 7 31 7 31 3z"/>
<path d="M475 1240 c-3 -6 1 -7 9 -4 18 7 21 14 7 14 -6 0 -13 -4 -16 -10z"/>
</g>
</svg>
